<svg xmlns="http://www.w3.org/2000/svg" viewBox="0 0 1000 700">
  <!-- Background and title -->
  <rect width="1000" height="700" fill="#ffffff" />
  <text x="500" y="40" font-family="Arial" font-size="24" text-anchor="middle" font-weight="bold">Application Topology Diagram (draw.io Style)</text>
  
  <!-- Docker Environment Container -->
  <rect x="50" y="80" width="900" height="570" fill="#f5f5f5" stroke="#666666" stroke-width="2" rx="5" ry="5" />
  <text x="500" y="100" font-family="Arial" font-size="16" text-anchor="middle">Docker Environment</text>
  
  <!-- Docker Network -->
  <rect x="100" y="120" width="800" height="480" fill="#e6f2ff" stroke="#0066cc" stroke-width="1" stroke-dasharray="5,3" rx="0" ry="0" />
  <text x="180" y="140" font-family="Arial" font-size="14">Docker Bridge Network (172.X.0.0/16)</text>
  
  <!-- Backend Container -->
  <rect x="150" y="180" width="240" height="300" fill="#ffffff" stroke="#000000" stroke-width="1" />
  <rect x="150" y="180" width="240" height="30" fill="#4472c4" stroke="#000000" stroke-width="1" />
  <text x="270" y="200" font-family="Arial" font-size="14" text-anchor="middle" fill="white">Backend Container</text>
  
  <rect x="160" y="220" width="220" height="250" fill="#ffffff" stroke="#000000" stroke-width="1" />
  <text x="170" y="240" font-family="Arial" font-size="12">- Image: python:3.9-slim</text>
  <text x="170" y="260" font-family="Arial" font-size="12">- Container Name: backend_1</text>
  <text x="170" y="280" font-family="Arial" font-size="12">- IP: 172.XX.0.X (dynamic)</text>
  <text x="170" y="300" font-family="Arial" font-size="12">- Port Mapping: 8000:8000</text>
  <text x="170" y="320" font-family="Arial" font-size="12">- Process: Uvicorn/FastAPI</text>
  <text x="170" y="340" font-family="Arial" font-size="12">- Volume: ./backend:/app</text>
  <text x="170" y="360" font-family="Arial" font-size="12">- ENV: PYTHONUNBUFFERED=1</text>
  <text x="170" y="380" font-family="Arial" font-size="12">- ENV: GEMINI_API_KEY</text>
  <text x="170" y="400" font-family="Arial" font-size="12">- Dependency: llm_service</text>
  <text x="170" y="420" font-family="Arial" font-size="12">- Entrypoint: uvicorn app.main:app</text>
  <text x="170" y="440" font-family="Arial" font-size="12">- Network: default</text>
  
  <!-- Frontend Container -->
  <rect x="610" y="180" width="240" height="300" fill="#ffffff" stroke="#000000" stroke-width="1" />
  <rect x="610" y="180" width="240" height="30" fill="#70ad47" stroke="#000000" stroke-width="1" />
  <text x="730" y="200" font-family="Arial" font-size="14" text-anchor="middle" fill="white">Frontend Container</text>
  
  <rect x="620" y="220" width="220" height="250" fill="#ffffff" stroke="#000000" stroke-width="1" />
  <text x="630" y="240" font-family="Arial" font-size="12">- Image: node:18-alpine</text>
  <text x="630" y="260" font-family="Arial" font-size="12">- Container Name: frontend_1</text>
  <text x="630" y="280" font-family="Arial" font-size="12">- IP: 172.XX.0.X (dynamic)</text>
  <text x="630" y="300" font-family="Arial" font-size="12">- Port Mapping: 3000:3000</text>
  <text x="630" y="320" font-family="Arial" font-size="12">- Process: serve -s build</text>
  <text x="630" y="340" font-family="Arial" font-size="12">- ENV: CI=true</text>
  <text x="630" y="360" font-family="Arial" font-size="12">- stdin_open: true</text>
  <text x="630" y="380" font-family="Arial" font-size="12">- tty: true</text>
  <text x="630" y="400" font-family="Arial" font-size="12">- Build: npm run build</text>
  <text x="630" y="420" font-family="Arial" font-size="12">- Network: default</text>
  
  <!-- LLM Service Container -->
  <rect x="380" y="400" width="240" height="180" fill="#ffffff" stroke="#000000" stroke-width="1" />
  <rect x="380" y="400" width="240" height="30" fill="#ed7d31" stroke="#000000" stroke-width="1" />
  <text x="500" y="420" font-family="Arial" font-size="14" text-anchor="middle" fill="white">LLM Service Container</text>
  
  <rect x="390" y="440" width="220" height="130" fill="#ffffff" stroke="#000000" stroke-width="1" />
  <text x="400" y="460" font-family="Arial" font-size="12">- Image: python:3.11-slim</text>
  <text x="400" y="480" font-family="Arial" font-size="12">- Container Name: llm_service_1</text>
  <text x="400" y="500" font-family="Arial" font-size="12">- IP: 172.XX.0.X (dynamic)</text>
  <text x="400" y="520" font-family="Arial" font-size="12">- Port Mapping: 8001:8001</text>
  <text x="400" y="540" font-family="Arial" font-size="12">- Process: uvicorn app.main:app</text>
  <text x="400" y="560" font-family="Arial" font-size="12">- ENV: GEMINI_API_KEY</text>
  
  <!-- User Browser -->
  <rect x="450" y="50" width="100" height="50" rx="10" ry="10" fill="#f5f5f5" stroke="#666666" stroke-width="2" />
  <text x="500" y="80" font-family="Arial" font-size="14" text-anchor="middle">User Browser</text>
  
  <!-- Host Machine -->
  <text x="60" y="90" font-family="Arial" font-size="14" font-weight="bold">Host Machine</text>

  <!-- Ports on host -->
  <rect x="930" y="180" width="50" height="30" fill="#e6e6e6" stroke="#666666" stroke-width="1" rx="0" ry="0" />
  <text x="955" y="200" font-family="Arial" font-size="12" text-anchor="middle">:3000</text>
  
  <rect x="930" y="300" width="50" height="30" fill="#e6e6e6" stroke="#666666" stroke-width="1" rx="0" ry="0" />
  <text x="955" y="320" font-family="Arial" font-size="12" text-anchor="middle">:8000</text>
  
  <rect x="930" y="450" width="50" height="30" fill="#e6e6e6" stroke="#666666" stroke-width="1" rx="0" ry="0" />
  <text x="955" y="470" font-family="Arial" font-size="12" text-anchor="middle">:8001</text>
  
  <!-- Connection lines -->
  <!-- User to Frontend -->
  <line x1="500" y1="100" x2="500" y2="130" stroke="#000000" stroke-width="1.5" />
  <line x1="500" y1="130" x2="730" y2="130" stroke="#000000" stroke-width="1.5" />
  <line x1="730" y1="130" x2="730" y2="180" stroke="#000000" stroke-width="1.5" />
  <polygon points="730,180 725,170 735,170" fill="#000000" />
  <text x="650" y="125" font-family="Arial" font-size="12" text-anchor="middle">HTTP :3000</text>
  
  <!-- User to Backend -->
  <line x1="500" y1="100" x2="500" y2="130" stroke="#000000" stroke-width="1.5" />
  <line x1="500" y1="130" x2="270" y2="130" stroke="#000000" stroke-width="1.5" />
  <line x1="270" y1="130" x2="270" y2="180" stroke="#000000" stroke-width="1.5" />
  <polygon points="270,180 265,170 275,170" fill="#000000" />
  <text x="350" y="125" font-family="Arial" font-size="12" text-anchor="middle">HTTP :8000</text>
  
  <!-- Frontend to Backend -->
  <line x1="610" y1="330" x2="390" y2="330" stroke="#000000" stroke-width="1.5" />
  <polygon points="390,330 400,325 400,335" fill="#000000" />
  <text x="500" y="320" font-family="Arial" font-size="12" text-anchor="middle">HTTP API calls</text>
  <text x="500" y="340" font-family="Arial" font-size="10" text-anchor="middle">backend:8000/api/*</text>
  
  <!-- Backend to LLM -->
  <line x1="270" y1="480" x2="380" y2="480" stroke="#000000" stroke-width="1.5" />
  <polygon points="380,480 370,475 370,485" fill="#000000" />
  <text x="325" y="470" font-family="Arial" font-size="12" text-anchor="middle">HTTP API calls</text>
  <text x="325" y="490" font-family="Arial" font-size="10" text-anchor="middle">llm_service:8001/*</text>
  
  <!-- Host port connections -->
  <line x1="850" y1="195" x2="930" y2="195" stroke="#666666" stroke-width="1" stroke-dasharray="5,2" />
  <line x1="850" y1="315" x2="930" y2="315" stroke="#666666" stroke-width="1" stroke-dasharray="5,2" />
  <line x1="620" y1="465" x2="930" y2="465" stroke="#666666" stroke-width="1" stroke-dasharray="5,2" />
  
  <!-- External LLM Service -->
  <rect x="380" y="620" width="240" height="60" fill="#f5f5f5" stroke="#666666" stroke-width="2" rx="5" ry="5" />
  <text x="500" y="650" font-family="Arial" font-size="14" text-anchor="middle">External Gemini API</text>
  <text x="500" y="670" font-family="Arial" font-size="12" text-anchor="middle">Public Internet</text>
  
  <!-- LLM to External Service -->
  <line x1="500" y1="580" x2="500" y2="620" stroke="#000000" stroke-width="1.5" stroke-dasharray="5,3" />
  <polygon points="500,620 495,610 505,610" fill="#000000" />
  <text x="550" y="600" font-family="Arial" font-size="12">HTTPS API Calls</text>
  
  <!-- Legend -->
  <rect x="100" y="620" width="250" height="100" fill="#f5f5f5" stroke="#666666" stroke-width="1" />
  <text x="110" y="635" font-family="Arial" font-size="12" font-weight="bold">Legend:</text>
  
  <rect x="110" y="645" width="15" height="15" fill="#4472c4" />
  <text x="130" y="658" font-family="Arial" font-size="12">Backend Container</text>
  
  <rect x="110" y="670" width="15" height="15" fill="#70ad47" />
  <text x="130" y="683" font-family="Arial" font-size="12">Frontend Container</text>
  
  <rect x="110" y="695" width="15" height="15" fill="#ed7d31" />
  <text x="130" y="708" font-family="Arial" font-size="12">LLM Service Container</text>
  
  <line x1="200" y="658" x2="230" y2="658" stroke="#000000" stroke-width="1.5" />
  <text x="260" y="658" font-family="Arial" font-size="12">HTTP Connection</text>
  
  <line x1="200" y="683" x2="230" y2="683" stroke="#000000" stroke-width="1.5" stroke-dasharray="5,3" />
  <text x="260" y="683" font-family="Arial" font-size="12">External API Call</text>
</svg>
